<svg width="435" height="298" viewBox="0 0 435 298" fill="none" xmlns="http://www.w3.org/2000/svg">
<rect width="435" height="298" fill="#E5E5E5"/>
<g id="api 1">
<path id="Vector" d="M348.846 101.368C348.846 100.364 348.846 99.3601 348.846 98.3563C348.846 47.1609 306.115 5 254.228 5C218.619 5 188.097 24.0728 171.819 52.1801C160.627 42.1418 145.366 36.1188 128.071 36.1188C91.4441 36.1188 60.9222 66.2337 60.9222 102.372V103.375C29.3828 115.421 7 146.54 7 182.678C7 229.858 45.6612 267 92.4615 267H324.429C372.246 267 409.89 228.854 409.89 182.678C411.925 144.533 385.473 111.406 348.846 101.368Z" fill="white"/>
<path id="Vector_2" d="M179.906 143H224V104.093L211.031 115.536L159.156 69L141 85.0206L193.74 131.557L179.906 143Z" fill="#2EA2DB"/>
<path id="Vector_3" d="M140.268 104H94V140.804L108.515 129.979L162.948 174L182 158.845L126.66 114.825L140.268 104Z" fill="#F16051"/>
<path id="HTTP GET" d="M268.518 191.25L263.473 191.259L263.378 166.052L268.423 166.043L268.461 176.133L278.534 176.115L278.496 166.025L283.541 166.017L283.635 191.223L278.59 191.232L278.553 181.16L268.48 181.178L268.518 191.25ZM298.911 191.196L293.883 191.205L293.808 171.043L286.231 171.057L286.212 166.012L306.374 165.976L306.393 171.021L298.835 171.034L298.911 191.196ZM319.723 191.16L314.696 191.169L314.62 171.007L307.044 171.02L307.025 165.975L327.187 165.94L327.206 170.984L319.647 170.998L319.723 191.16ZM334.923 170.971L334.961 181.061L340.006 181.052C340.697 181.05 341.347 180.92 341.955 180.661C342.564 180.391 343.095 180.027 343.551 179.569C344.006 179.111 344.362 178.577 344.617 177.967C344.884 177.346 345.017 176.689 345.014 175.998C345.011 175.306 344.874 174.656 344.602 174.047C344.342 173.427 343.983 172.888 343.524 172.432C343.065 171.976 342.531 171.619 341.92 171.363C341.31 171.094 340.659 170.961 339.968 170.962L334.923 170.971ZM334.999 191.133L329.954 191.142L329.859 165.935L339.949 165.917C340.874 165.915 341.766 166.037 342.622 166.281C343.478 166.514 344.276 166.853 345.016 167.297C345.768 167.729 346.45 168.255 347.061 168.875C347.685 169.483 348.215 170.162 348.651 170.911C349.099 171.661 349.442 172.463 349.68 173.318C349.929 174.173 350.055 175.063 350.059 175.989C350.064 177.372 349.805 178.679 349.283 179.91C348.76 181.13 348.043 182.198 347.132 183.113C346.222 184.029 345.152 184.752 343.924 185.281C342.707 185.811 341.407 186.077 340.024 186.079L334.98 186.088L334.999 191.133ZM283.689 233.674C282.521 234.673 281.218 235.442 279.778 235.984C278.339 236.514 276.84 236.78 275.281 236.783C274.086 236.785 272.931 236.629 271.816 236.315C270.714 236.012 269.681 235.58 268.718 235.019C267.755 234.447 266.873 233.769 266.073 232.985C265.274 232.189 264.591 231.312 264.025 230.352C263.458 229.38 263.015 228.338 262.694 227.225C262.386 226.112 262.229 224.958 262.224 223.763C262.22 222.568 262.368 221.419 262.668 220.317C262.981 219.215 263.416 218.183 263.975 217.221C264.534 216.247 265.21 215.367 266.004 214.581C266.798 213.782 267.675 213.101 268.633 212.537C269.592 211.973 270.622 211.537 271.722 211.231C272.834 210.912 273.988 210.752 275.183 210.75C276.742 210.747 278.243 211.014 279.686 211.551C281.13 212.075 282.439 212.835 283.615 213.829L280.995 218.228C280.23 217.456 279.349 216.854 278.351 216.422C277.353 215.979 276.304 215.758 275.202 215.76C274.101 215.762 273.064 215.974 272.093 216.398C271.134 216.822 270.292 217.397 269.568 218.125C268.845 218.841 268.273 219.686 267.855 220.659C267.437 221.621 267.23 222.653 267.234 223.754C267.238 224.868 267.453 225.91 267.879 226.882C268.304 227.854 268.882 228.703 269.611 229.428C270.34 230.153 271.186 230.726 272.149 231.146C273.123 231.566 274.161 231.775 275.262 231.773C275.895 231.772 276.51 231.695 277.107 231.542C277.704 231.388 278.272 231.176 278.81 230.906L278.783 223.734L283.652 223.725L283.689 233.674ZM304.863 236.186L287.584 236.216L287.489 211.01L304.768 210.979L304.787 216.024L292.553 216.046L292.572 221.09L300.851 221.076L300.87 226.121L292.591 226.135L292.61 231.163L304.844 231.141L304.863 236.186ZM318.978 236.161L313.951 236.17L313.875 216.008L306.299 216.021L306.28 210.976L326.442 210.941L326.461 215.986L318.902 215.999L318.978 236.161Z" fill="#203A60"/>
</g>
</svg>
